<mxfile host="Electron" modified="2023-07-07T16:47:46.458Z" agent="Mozilla/5.0 (Windows NT 10.0; Win64; x64) AppleWebKit/537.36 (KHTML, like Gecko) draw.io/21.5.0 Chrome/112.0.5615.204 Electron/24.5.1 Safari/537.36" etag="JYfMMcm6qs-Px6Pboqg6" version="21.5.0" type="device">
  <diagram name="Page-1" id="Gv-ZMRfUbLfp-XQoBL5b">
    <mxGraphModel dx="2026" dy="1197" grid="1" gridSize="10" guides="1" tooltips="1" connect="1" arrows="1" fold="1" page="1" pageScale="1" pageWidth="827" pageHeight="1169" math="1" shadow="0">
      <root>
        <mxCell id="0" />
        <mxCell id="1" parent="0" />
        <mxCell id="Zl0RVTOyAOzb0Fg0_uol-5" value="" style="rounded=0;orthogonalLoop=1;jettySize=auto;html=1;endArrow=none;endFill=0;strokeWidth=2;fillColor=#e1d5e7;strokeColor=#9673a6;" edge="1" parent="1" source="Zl0RVTOyAOzb0Fg0_uol-1" target="Zl0RVTOyAOzb0Fg0_uol-6">
          <mxGeometry relative="1" as="geometry">
            <mxPoint x="520" y="550" as="targetPoint" />
          </mxGeometry>
        </mxCell>
        <mxCell id="Zl0RVTOyAOzb0Fg0_uol-8" style="rounded=0;orthogonalLoop=1;jettySize=auto;html=1;endArrow=none;endFill=0;strokeWidth=2;fillColor=#e1d5e7;strokeColor=#9673a6;" edge="1" parent="1" source="Zl0RVTOyAOzb0Fg0_uol-1" target="Zl0RVTOyAOzb0Fg0_uol-7">
          <mxGeometry relative="1" as="geometry" />
        </mxCell>
        <mxCell id="Zl0RVTOyAOzb0Fg0_uol-1" value="$$\times$$" style="ellipse;whiteSpace=wrap;html=1;aspect=fixed;fontSize=27;fillColor=#e1d5e7;strokeColor=#9673a6;strokeWidth=2;" vertex="1" parent="1">
          <mxGeometry x="480" y="390" width="80" height="80" as="geometry" />
        </mxCell>
        <mxCell id="Zl0RVTOyAOzb0Fg0_uol-16" value="" style="rounded=0;orthogonalLoop=1;jettySize=auto;html=1;endArrow=none;endFill=0;strokeWidth=2;fillColor=#e1d5e7;strokeColor=#9673a6;" edge="1" parent="1" source="Zl0RVTOyAOzb0Fg0_uol-6" target="Zl0RVTOyAOzb0Fg0_uol-15">
          <mxGeometry relative="1" as="geometry" />
        </mxCell>
        <mxCell id="Zl0RVTOyAOzb0Fg0_uol-18" value="" style="rounded=0;orthogonalLoop=1;jettySize=auto;html=1;endArrow=none;endFill=0;strokeWidth=2;fillColor=#e1d5e7;strokeColor=#9673a6;" edge="1" parent="1" source="Zl0RVTOyAOzb0Fg0_uol-6" target="Zl0RVTOyAOzb0Fg0_uol-17">
          <mxGeometry relative="1" as="geometry">
            <mxPoint x="662.1114561800305" y="714.222912360061" as="targetPoint" />
          </mxGeometry>
        </mxCell>
        <mxCell id="Zl0RVTOyAOzb0Fg0_uol-6" value="$$\mathrm{pow}$$" style="ellipse;whiteSpace=wrap;html=1;aspect=fixed;fontSize=27;fillColor=#e1d5e7;strokeColor=#9673a6;strokeWidth=2;" vertex="1" parent="1">
          <mxGeometry x="560" y="550" width="80" height="80" as="geometry" />
        </mxCell>
        <mxCell id="Zl0RVTOyAOzb0Fg0_uol-7" value="$$5$$" style="ellipse;whiteSpace=wrap;html=1;aspect=fixed;fontSize=27;fillColor=#e1d5e7;strokeColor=#9673a6;strokeWidth=2;" vertex="1" parent="1">
          <mxGeometry x="400" y="545" width="80" height="80" as="geometry" />
        </mxCell>
        <mxCell id="Zl0RVTOyAOzb0Fg0_uol-15" value="$$5$$" style="ellipse;whiteSpace=wrap;html=1;aspect=fixed;fontSize=27;fillColor=#e1d5e7;strokeColor=#9673a6;strokeWidth=2;" vertex="1" parent="1">
          <mxGeometry x="480" y="710" width="80" height="80" as="geometry" />
        </mxCell>
        <mxCell id="Zl0RVTOyAOzb0Fg0_uol-17" value="$$3$$" style="ellipse;whiteSpace=wrap;html=1;aspect=fixed;fontSize=27;fillColor=#e1d5e7;strokeColor=#9673a6;strokeWidth=2;" vertex="1" parent="1">
          <mxGeometry x="640" y="710" width="80" height="80" as="geometry" />
        </mxCell>
        <mxCell id="Zl0RVTOyAOzb0Fg0_uol-19" value="" style="rounded=0;orthogonalLoop=1;jettySize=auto;html=1;endArrow=none;endFill=0;strokeWidth=2;fillColor=#fff2cc;strokeColor=#d6b656;" edge="1" parent="1" source="Zl0RVTOyAOzb0Fg0_uol-21" target="Zl0RVTOyAOzb0Fg0_uol-24">
          <mxGeometry relative="1" as="geometry">
            <mxPoint x="520" y="990" as="targetPoint" />
          </mxGeometry>
        </mxCell>
        <mxCell id="Zl0RVTOyAOzb0Fg0_uol-20" style="rounded=0;orthogonalLoop=1;jettySize=auto;html=1;endArrow=none;endFill=0;strokeWidth=2;fillColor=#fff2cc;strokeColor=#d6b656;" edge="1" parent="1" source="Zl0RVTOyAOzb0Fg0_uol-21" target="Zl0RVTOyAOzb0Fg0_uol-27">
          <mxGeometry relative="1" as="geometry" />
        </mxCell>
        <mxCell id="Zl0RVTOyAOzb0Fg0_uol-21" value="$$-$$" style="ellipse;whiteSpace=wrap;html=1;aspect=fixed;fontSize=27;fillColor=#fff2cc;strokeColor=#d6b656;strokeWidth=2;" vertex="1" parent="1">
          <mxGeometry x="480" y="830" width="80" height="80" as="geometry" />
        </mxCell>
        <mxCell id="Zl0RVTOyAOzb0Fg0_uol-22" value="" style="rounded=0;orthogonalLoop=1;jettySize=auto;html=1;endArrow=none;endFill=0;strokeWidth=2;fillColor=#fff2cc;strokeColor=#d6b656;" edge="1" parent="1" source="Zl0RVTOyAOzb0Fg0_uol-24" target="Zl0RVTOyAOzb0Fg0_uol-32">
          <mxGeometry relative="1" as="geometry" />
        </mxCell>
        <mxCell id="Zl0RVTOyAOzb0Fg0_uol-35" value="" style="rounded=0;orthogonalLoop=1;jettySize=auto;html=1;endArrow=none;endFill=0;strokeWidth=2;fillColor=#fff2cc;strokeColor=#d6b656;" edge="1" parent="1" source="Zl0RVTOyAOzb0Fg0_uol-24" target="Zl0RVTOyAOzb0Fg0_uol-34">
          <mxGeometry relative="1" as="geometry" />
        </mxCell>
        <mxCell id="Zl0RVTOyAOzb0Fg0_uol-24" value="$$+$$" style="ellipse;whiteSpace=wrap;html=1;aspect=fixed;fontSize=27;fillColor=#fff2cc;strokeColor=#d6b656;strokeWidth=2;" vertex="1" parent="1">
          <mxGeometry x="560" y="990" width="80" height="80" as="geometry" />
        </mxCell>
        <mxCell id="Zl0RVTOyAOzb0Fg0_uol-27" value="$$7$$" style="ellipse;whiteSpace=wrap;html=1;aspect=fixed;fontSize=27;fillColor=#fff2cc;strokeColor=#d6b656;strokeWidth=2;" vertex="1" parent="1">
          <mxGeometry x="400" y="990" width="80" height="80" as="geometry" />
        </mxCell>
        <mxCell id="Zl0RVTOyAOzb0Fg0_uol-32" value="$$5$$" style="ellipse;whiteSpace=wrap;html=1;aspect=fixed;fontSize=27;fillColor=#fff2cc;strokeColor=#d6b656;strokeWidth=2;" vertex="1" parent="1">
          <mxGeometry x="480" y="1150" width="80" height="80" as="geometry" />
        </mxCell>
        <mxCell id="Zl0RVTOyAOzb0Fg0_uol-37" value="" style="edgeStyle=orthogonalEdgeStyle;rounded=0;orthogonalLoop=1;jettySize=auto;html=1;strokeWidth=2;fillColor=#fff2cc;strokeColor=#d6b656;endArrow=none;endFill=0;" edge="1" parent="1" source="Zl0RVTOyAOzb0Fg0_uol-34" target="Zl0RVTOyAOzb0Fg0_uol-36">
          <mxGeometry relative="1" as="geometry" />
        </mxCell>
        <mxCell id="Zl0RVTOyAOzb0Fg0_uol-34" value="$$\sin$$" style="ellipse;whiteSpace=wrap;html=1;aspect=fixed;fontSize=27;fillColor=#fff2cc;strokeColor=#d6b656;strokeWidth=2;" vertex="1" parent="1">
          <mxGeometry x="640" y="1150" width="80" height="80" as="geometry" />
        </mxCell>
        <mxCell id="Zl0RVTOyAOzb0Fg0_uol-36" value="$$x$$" style="ellipse;whiteSpace=wrap;html=1;aspect=fixed;fontSize=27;fillColor=#fff2cc;strokeColor=#d6b656;strokeWidth=2;" vertex="1" parent="1">
          <mxGeometry x="640" y="1310" width="80" height="80" as="geometry" />
        </mxCell>
        <mxCell id="Zl0RVTOyAOzb0Fg0_uol-58" style="rounded=0;orthogonalLoop=1;jettySize=auto;html=1;endArrow=none;endFill=0;strokeWidth=2;fillColor=#e1d5e7;strokeColor=#9673a6;" edge="1" parent="1" source="Zl0RVTOyAOzb0Fg0_uol-59" target="Zl0RVTOyAOzb0Fg0_uol-63">
          <mxGeometry relative="1" as="geometry" />
        </mxCell>
        <mxCell id="Zl0RVTOyAOzb0Fg0_uol-59" value="$$\times$$" style="ellipse;whiteSpace=wrap;html=1;aspect=fixed;fontSize=27;fillColor=#e1d5e7;strokeColor=#9673a6;strokeWidth=2;" vertex="1" parent="1">
          <mxGeometry x="960" y="390" width="80" height="80" as="geometry" />
        </mxCell>
        <mxCell id="Zl0RVTOyAOzb0Fg0_uol-60" value="" style="rounded=0;orthogonalLoop=1;jettySize=auto;html=1;endArrow=none;endFill=0;strokeWidth=4;fillColor=#e1d5e7;strokeColor=#9673a6;fontStyle=0;fontSize=30;" edge="1" parent="1" source="Zl0RVTOyAOzb0Fg0_uol-62" target="Zl0RVTOyAOzb0Fg0_uol-64">
          <mxGeometry relative="1" as="geometry" />
        </mxCell>
        <mxCell id="Zl0RVTOyAOzb0Fg0_uol-61" value="" style="rounded=0;orthogonalLoop=1;jettySize=auto;html=1;endArrow=none;endFill=0;strokeWidth=4;fillColor=#e1d5e7;strokeColor=#9673a6;fontStyle=0;fontSize=30;" edge="1" parent="1" source="Zl0RVTOyAOzb0Fg0_uol-62" target="Zl0RVTOyAOzb0Fg0_uol-65">
          <mxGeometry relative="1" as="geometry">
            <mxPoint x="1142.1114561800305" y="714.222912360061" as="targetPoint" />
          </mxGeometry>
        </mxCell>
        <mxCell id="Zl0RVTOyAOzb0Fg0_uol-62" value="$$\mathrm{pow}$$" style="ellipse;whiteSpace=wrap;html=1;aspect=fixed;fontSize=30;fillColor=#e1d5e7;strokeColor=#9673a6;strokeWidth=4;fontStyle=0" vertex="1" parent="1">
          <mxGeometry x="1040" y="550" width="80" height="80" as="geometry" />
        </mxCell>
        <mxCell id="Zl0RVTOyAOzb0Fg0_uol-63" value="$$5$$" style="ellipse;whiteSpace=wrap;html=1;aspect=fixed;fontSize=27;fillColor=#e1d5e7;strokeColor=#9673a6;strokeWidth=2;" vertex="1" parent="1">
          <mxGeometry x="880" y="545" width="80" height="80" as="geometry" />
        </mxCell>
        <mxCell id="Zl0RVTOyAOzb0Fg0_uol-64" value="$$x$$" style="ellipse;whiteSpace=wrap;html=1;aspect=fixed;fontSize=30;fillColor=#e1d5e7;strokeColor=#9673a6;strokeWidth=4;fontStyle=0" vertex="1" parent="1">
          <mxGeometry x="960" y="710" width="80" height="80" as="geometry" />
        </mxCell>
        <mxCell id="Zl0RVTOyAOzb0Fg0_uol-65" value="$$2$$" style="ellipse;whiteSpace=wrap;html=1;aspect=fixed;fontSize=30;fillColor=#e1d5e7;strokeColor=#9673a6;strokeWidth=4;fontStyle=0" vertex="1" parent="1">
          <mxGeometry x="1120" y="710" width="80" height="80" as="geometry" />
        </mxCell>
        <mxCell id="Zl0RVTOyAOzb0Fg0_uol-66" value="" style="rounded=0;orthogonalLoop=1;jettySize=auto;html=1;endArrow=none;endFill=0;strokeWidth=2;fillColor=#fff2cc;strokeColor=#d6b656;" edge="1" parent="1" source="Zl0RVTOyAOzb0Fg0_uol-68" target="Zl0RVTOyAOzb0Fg0_uol-71">
          <mxGeometry relative="1" as="geometry">
            <mxPoint x="1000" y="1000" as="targetPoint" />
          </mxGeometry>
        </mxCell>
        <mxCell id="Zl0RVTOyAOzb0Fg0_uol-67" style="rounded=0;orthogonalLoop=1;jettySize=auto;html=1;endArrow=none;endFill=0;strokeWidth=2;fillColor=#fff2cc;strokeColor=#d6b656;" edge="1" parent="1" source="Zl0RVTOyAOzb0Fg0_uol-68" target="Zl0RVTOyAOzb0Fg0_uol-72">
          <mxGeometry relative="1" as="geometry" />
        </mxCell>
        <mxCell id="Zl0RVTOyAOzb0Fg0_uol-68" value="$$-$$" style="ellipse;whiteSpace=wrap;html=1;aspect=fixed;fontSize=27;fillColor=#fff2cc;strokeColor=#d6b656;strokeWidth=2;" vertex="1" parent="1">
          <mxGeometry x="960" y="840" width="80" height="80" as="geometry" />
        </mxCell>
        <mxCell id="Zl0RVTOyAOzb0Fg0_uol-70" value="" style="rounded=0;orthogonalLoop=1;jettySize=auto;html=1;endArrow=none;endFill=0;strokeWidth=2;fillColor=#fff2cc;strokeColor=#d6b656;" edge="1" parent="1" source="Zl0RVTOyAOzb0Fg0_uol-71" target="Zl0RVTOyAOzb0Fg0_uol-75">
          <mxGeometry relative="1" as="geometry" />
        </mxCell>
        <mxCell id="Zl0RVTOyAOzb0Fg0_uol-71" value="$$+$$" style="ellipse;whiteSpace=wrap;html=1;aspect=fixed;fontSize=27;fillColor=#fff2cc;strokeColor=#d6b656;strokeWidth=2;" vertex="1" parent="1">
          <mxGeometry x="1040" y="1000" width="80" height="80" as="geometry" />
        </mxCell>
        <mxCell id="Zl0RVTOyAOzb0Fg0_uol-72" value="$$7$$" style="ellipse;whiteSpace=wrap;html=1;aspect=fixed;fontSize=27;fillColor=#fff2cc;strokeColor=#d6b656;strokeWidth=2;" vertex="1" parent="1">
          <mxGeometry x="880" y="1000" width="80" height="80" as="geometry" />
        </mxCell>
        <mxCell id="Zl0RVTOyAOzb0Fg0_uol-73" value="$$5$$" style="ellipse;whiteSpace=wrap;html=1;aspect=fixed;fontSize=30;fillColor=#fff2cc;strokeColor=#d6b656;strokeWidth=4;" vertex="1" parent="1">
          <mxGeometry x="960" y="1160" width="80" height="80" as="geometry" />
        </mxCell>
        <mxCell id="Zl0RVTOyAOzb0Fg0_uol-74" value="" style="edgeStyle=orthogonalEdgeStyle;rounded=0;orthogonalLoop=1;jettySize=auto;html=1;strokeWidth=2;fillColor=#fff2cc;strokeColor=#d6b656;endArrow=none;endFill=0;" edge="1" parent="1" source="Zl0RVTOyAOzb0Fg0_uol-75" target="Zl0RVTOyAOzb0Fg0_uol-76">
          <mxGeometry relative="1" as="geometry" />
        </mxCell>
        <mxCell id="Zl0RVTOyAOzb0Fg0_uol-75" value="$$\sin$$" style="ellipse;whiteSpace=wrap;html=1;aspect=fixed;fontSize=27;fillColor=#fff2cc;strokeColor=#d6b656;strokeWidth=2;" vertex="1" parent="1">
          <mxGeometry x="1120" y="1160" width="80" height="80" as="geometry" />
        </mxCell>
        <mxCell id="Zl0RVTOyAOzb0Fg0_uol-76" value="$$x$$" style="ellipse;whiteSpace=wrap;html=1;aspect=fixed;fontSize=27;fillColor=#fff2cc;strokeColor=#d6b656;strokeWidth=2;" vertex="1" parent="1">
          <mxGeometry x="1120" y="1320" width="80" height="80" as="geometry" />
        </mxCell>
        <mxCell id="Zl0RVTOyAOzb0Fg0_uol-77" style="rounded=0;orthogonalLoop=1;jettySize=auto;html=1;endArrow=none;endFill=0;strokeWidth=2;fillColor=#e1d5e7;strokeColor=#9673a6;" edge="1" parent="1" source="Zl0RVTOyAOzb0Fg0_uol-78" target="Zl0RVTOyAOzb0Fg0_uol-82">
          <mxGeometry relative="1" as="geometry" />
        </mxCell>
        <mxCell id="Zl0RVTOyAOzb0Fg0_uol-95" style="rounded=0;orthogonalLoop=1;jettySize=auto;html=1;exitX=1;exitY=1;exitDx=0;exitDy=0;endArrow=none;endFill=0;strokeWidth=4;fillColor=#fff2cc;strokeColor=#d6b656;" edge="1" parent="1" source="Zl0RVTOyAOzb0Fg0_uol-78" target="Zl0RVTOyAOzb0Fg0_uol-91">
          <mxGeometry relative="1" as="geometry" />
        </mxCell>
        <mxCell id="Zl0RVTOyAOzb0Fg0_uol-78" value="$$\times$$" style="ellipse;whiteSpace=wrap;html=1;aspect=fixed;fontSize=27;fillColor=#e1d5e7;strokeColor=#9673a6;strokeWidth=2;" vertex="1" parent="1">
          <mxGeometry x="1440" y="390" width="80" height="80" as="geometry" />
        </mxCell>
        <mxCell id="Zl0RVTOyAOzb0Fg0_uol-79" value="" style="rounded=0;orthogonalLoop=1;jettySize=auto;html=1;endArrow=none;endFill=0;strokeWidth=4;fillColor=#e1d5e7;strokeColor=#9673a6;fontSize=30;" edge="1" parent="1" source="Zl0RVTOyAOzb0Fg0_uol-81" target="Zl0RVTOyAOzb0Fg0_uol-83">
          <mxGeometry relative="1" as="geometry" />
        </mxCell>
        <mxCell id="Zl0RVTOyAOzb0Fg0_uol-80" value="" style="rounded=0;orthogonalLoop=1;jettySize=auto;html=1;endArrow=none;endFill=0;strokeWidth=4;fillColor=#e1d5e7;strokeColor=#9673a6;fontSize=30;" edge="1" parent="1" source="Zl0RVTOyAOzb0Fg0_uol-81" target="Zl0RVTOyAOzb0Fg0_uol-84">
          <mxGeometry relative="1" as="geometry">
            <mxPoint x="1542.1114561800305" y="1314.222912360061" as="targetPoint" />
          </mxGeometry>
        </mxCell>
        <mxCell id="Zl0RVTOyAOzb0Fg0_uol-81" value="$$\mathrm{pow}$$" style="ellipse;whiteSpace=wrap;html=1;aspect=fixed;fontSize=30;fillColor=#e1d5e7;strokeColor=#9673a6;strokeWidth=4;" vertex="1" parent="1">
          <mxGeometry x="1430" y="1160" width="80" height="80" as="geometry" />
        </mxCell>
        <mxCell id="Zl0RVTOyAOzb0Fg0_uol-82" value="$$5$$" style="ellipse;whiteSpace=wrap;html=1;aspect=fixed;fontSize=27;fillColor=#e1d5e7;strokeColor=#9673a6;strokeWidth=2;" vertex="1" parent="1">
          <mxGeometry x="1360" y="545" width="80" height="80" as="geometry" />
        </mxCell>
        <mxCell id="Zl0RVTOyAOzb0Fg0_uol-83" value="$$x$$" style="ellipse;whiteSpace=wrap;html=1;aspect=fixed;fontSize=30;fillColor=#e1d5e7;strokeColor=#9673a6;strokeWidth=4;" vertex="1" parent="1">
          <mxGeometry x="1360" y="1310" width="80" height="80" as="geometry" />
        </mxCell>
        <mxCell id="Zl0RVTOyAOzb0Fg0_uol-84" value="$$2$$" style="ellipse;whiteSpace=wrap;html=1;aspect=fixed;fontSize=30;fillColor=#e1d5e7;strokeColor=#9673a6;strokeWidth=4;" vertex="1" parent="1">
          <mxGeometry x="1510" y="1310" width="80" height="80" as="geometry" />
        </mxCell>
        <mxCell id="Zl0RVTOyAOzb0Fg0_uol-85" value="" style="rounded=0;orthogonalLoop=1;jettySize=auto;html=1;endArrow=none;endFill=0;strokeWidth=2;fillColor=#fff2cc;strokeColor=#d6b656;" edge="1" parent="1" source="Zl0RVTOyAOzb0Fg0_uol-87" target="Zl0RVTOyAOzb0Fg0_uol-89">
          <mxGeometry relative="1" as="geometry">
            <mxPoint x="1510" y="1000" as="targetPoint" />
          </mxGeometry>
        </mxCell>
        <mxCell id="Zl0RVTOyAOzb0Fg0_uol-86" style="rounded=0;orthogonalLoop=1;jettySize=auto;html=1;endArrow=none;endFill=0;strokeWidth=2;fillColor=#fff2cc;strokeColor=#d6b656;" edge="1" parent="1" source="Zl0RVTOyAOzb0Fg0_uol-87" target="Zl0RVTOyAOzb0Fg0_uol-90">
          <mxGeometry relative="1" as="geometry" />
        </mxCell>
        <mxCell id="Zl0RVTOyAOzb0Fg0_uol-87" value="$$-$$" style="ellipse;whiteSpace=wrap;html=1;aspect=fixed;fontSize=27;fillColor=#fff2cc;strokeColor=#d6b656;strokeWidth=2;" vertex="1" parent="1">
          <mxGeometry x="1470" y="840" width="80" height="80" as="geometry" />
        </mxCell>
        <mxCell id="Zl0RVTOyAOzb0Fg0_uol-88" value="" style="rounded=0;orthogonalLoop=1;jettySize=auto;html=1;endArrow=none;endFill=0;strokeWidth=2;fillColor=#fff2cc;strokeColor=#d6b656;" edge="1" parent="1" source="Zl0RVTOyAOzb0Fg0_uol-89" target="Zl0RVTOyAOzb0Fg0_uol-93">
          <mxGeometry relative="1" as="geometry" />
        </mxCell>
        <mxCell id="Zl0RVTOyAOzb0Fg0_uol-96" style="rounded=0;orthogonalLoop=1;jettySize=auto;html=1;endArrow=none;endFill=0;strokeWidth=4;fillColor=#e1d5e7;strokeColor=#9673a6;" edge="1" parent="1" source="Zl0RVTOyAOzb0Fg0_uol-89" target="Zl0RVTOyAOzb0Fg0_uol-81">
          <mxGeometry relative="1" as="geometry" />
        </mxCell>
        <mxCell id="Zl0RVTOyAOzb0Fg0_uol-89" value="$$+$$" style="ellipse;whiteSpace=wrap;html=1;aspect=fixed;fontSize=27;fillColor=#fff2cc;strokeColor=#d6b656;strokeWidth=2;" vertex="1" parent="1">
          <mxGeometry x="1550" y="1000" width="80" height="80" as="geometry" />
        </mxCell>
        <mxCell id="Zl0RVTOyAOzb0Fg0_uol-90" value="$$7$$" style="ellipse;whiteSpace=wrap;html=1;aspect=fixed;fontSize=27;fillColor=#fff2cc;strokeColor=#d6b656;strokeWidth=2;" vertex="1" parent="1">
          <mxGeometry x="1390" y="1000" width="80" height="80" as="geometry" />
        </mxCell>
        <mxCell id="Zl0RVTOyAOzb0Fg0_uol-91" value="$$5$$" style="ellipse;whiteSpace=wrap;html=1;aspect=fixed;fontSize=30;fillColor=#fff2cc;strokeColor=#d6b656;strokeWidth=4;" vertex="1" parent="1">
          <mxGeometry x="1520" y="545" width="80" height="80" as="geometry" />
        </mxCell>
        <mxCell id="Zl0RVTOyAOzb0Fg0_uol-92" value="" style="rounded=0;orthogonalLoop=1;jettySize=auto;html=1;strokeWidth=2;fillColor=#fff2cc;strokeColor=#d6b656;endArrow=none;endFill=0;" edge="1" parent="1" source="Zl0RVTOyAOzb0Fg0_uol-93" target="Zl0RVTOyAOzb0Fg0_uol-94">
          <mxGeometry relative="1" as="geometry">
            <mxPoint x="1590" y="1239.9999999999995" as="sourcePoint" />
            <mxPoint x="1590" y="1309.9999999999995" as="targetPoint" />
          </mxGeometry>
        </mxCell>
        <mxCell id="Zl0RVTOyAOzb0Fg0_uol-93" value="$$\sin$$" style="ellipse;whiteSpace=wrap;html=1;aspect=fixed;fontSize=27;fillColor=#fff2cc;strokeColor=#d6b656;strokeWidth=2;" vertex="1" parent="1">
          <mxGeometry x="1670" y="1160" width="80" height="80" as="geometry" />
        </mxCell>
        <mxCell id="Zl0RVTOyAOzb0Fg0_uol-94" value="$$x$$" style="ellipse;whiteSpace=wrap;html=1;aspect=fixed;fontSize=27;fillColor=#fff2cc;strokeColor=#d6b656;strokeWidth=2;" vertex="1" parent="1">
          <mxGeometry x="1670" y="1310" width="80" height="80" as="geometry" />
        </mxCell>
        <mxCell id="Zl0RVTOyAOzb0Fg0_uol-97" value="" style="shape=flexArrow;endArrow=classic;html=1;rounded=0;strokeWidth=2;" edge="1" parent="1">
          <mxGeometry width="50" height="50" relative="1" as="geometry">
            <mxPoint x="720" y="600" as="sourcePoint" />
            <mxPoint x="860" y="600" as="targetPoint" />
          </mxGeometry>
        </mxCell>
        <mxCell id="Zl0RVTOyAOzb0Fg0_uol-98" value="" style="shape=flexArrow;endArrow=classic;html=1;rounded=0;strokeWidth=2;" edge="1" parent="1">
          <mxGeometry width="50" height="50" relative="1" as="geometry">
            <mxPoint x="720" y="1080" as="sourcePoint" />
            <mxPoint x="860" y="1080" as="targetPoint" />
          </mxGeometry>
        </mxCell>
        <mxCell id="Zl0RVTOyAOzb0Fg0_uol-99" value="" style="shape=flexArrow;endArrow=classic;html=1;rounded=0;strokeWidth=2;" edge="1" parent="1">
          <mxGeometry width="50" height="50" relative="1" as="geometry">
            <mxPoint x="1200" y="600" as="sourcePoint" />
            <mxPoint x="1340" y="600" as="targetPoint" />
          </mxGeometry>
        </mxCell>
        <mxCell id="Zl0RVTOyAOzb0Fg0_uol-100" value="" style="shape=flexArrow;endArrow=classic;html=1;rounded=0;strokeWidth=2;" edge="1" parent="1">
          <mxGeometry width="50" height="50" relative="1" as="geometry">
            <mxPoint x="1200" y="1080" as="sourcePoint" />
            <mxPoint x="1340" y="1080" as="targetPoint" />
          </mxGeometry>
        </mxCell>
        <mxCell id="Zl0RVTOyAOzb0Fg0_uol-104" value="$$\phi_4 = 138.079\,865$$" style="text;html=1;strokeColor=none;fillColor=none;align=center;verticalAlign=middle;whiteSpace=wrap;rounded=0;fontSize=30;" vertex="1" parent="1">
          <mxGeometry x="375" y="310" width="290" height="50" as="geometry" />
        </mxCell>
        <mxCell id="Zl0RVTOyAOzb0Fg0_uol-105" value="&lt;font style=&quot;font-size: 30px;&quot;&gt;$$\mathbf{I}_4$$&lt;/font&gt;" style="text;html=1;strokeColor=none;fillColor=none;align=center;verticalAlign=middle;whiteSpace=wrap;rounded=0;" vertex="1" parent="1">
          <mxGeometry x="490" y="260" width="60" height="50" as="geometry" />
        </mxCell>
        <mxCell id="Zl0RVTOyAOzb0Fg0_uol-106" value="$$\phi_2 = 137.398\,836$$" style="text;html=1;strokeColor=none;fillColor=none;align=center;verticalAlign=middle;whiteSpace=wrap;rounded=0;fontSize=30;" vertex="1" parent="1">
          <mxGeometry x="375" y="1460" width="290" height="50" as="geometry" />
        </mxCell>
        <mxCell id="Zl0RVTOyAOzb0Fg0_uol-107" value="&lt;font style=&quot;font-size: 30px;&quot;&gt;$$\mathbf{I}_2$$&lt;/font&gt;" style="text;html=1;strokeColor=none;fillColor=none;align=center;verticalAlign=middle;whiteSpace=wrap;rounded=0;" vertex="1" parent="1">
          <mxGeometry x="490" y="1410" width="60" height="50" as="geometry" />
        </mxCell>
        <mxCell id="Zl0RVTOyAOzb0Fg0_uol-108" value="$$\phi&#39;_1 = 138.079\,865$$" style="text;html=1;strokeColor=none;fillColor=none;align=center;verticalAlign=middle;whiteSpace=wrap;rounded=0;fontSize=30;" vertex="1" parent="1">
          <mxGeometry x="1335" y="310" width="290" height="50" as="geometry" />
        </mxCell>
        <mxCell id="Zl0RVTOyAOzb0Fg0_uol-109" value="&lt;font style=&quot;font-size: 30px;&quot;&gt;$$\mathbf{O}_1$$&lt;/font&gt;" style="text;html=1;strokeColor=none;fillColor=none;align=center;verticalAlign=middle;whiteSpace=wrap;rounded=0;" vertex="1" parent="1">
          <mxGeometry x="1450" y="260" width="60" height="50" as="geometry" />
        </mxCell>
        <mxCell id="Zl0RVTOyAOzb0Fg0_uol-113" value="$$\phi&#39;_2 = 137.398\,836$$" style="text;html=1;strokeColor=none;fillColor=none;align=center;verticalAlign=middle;whiteSpace=wrap;rounded=0;fontSize=30;" vertex="1" parent="1">
          <mxGeometry x="1340" y="1460" width="290" height="50" as="geometry" />
        </mxCell>
        <mxCell id="Zl0RVTOyAOzb0Fg0_uol-114" value="&lt;font style=&quot;font-size: 30px;&quot;&gt;$$\mathbf{O}_2$$&lt;/font&gt;" style="text;html=1;strokeColor=none;fillColor=none;align=center;verticalAlign=middle;whiteSpace=wrap;rounded=0;" vertex="1" parent="1">
          <mxGeometry x="1455" y="1410" width="60" height="50" as="geometry" />
        </mxCell>
      </root>
    </mxGraphModel>
  </diagram>
</mxfile>
